<mxfile host="app.diagrams.net" modified="2023-06-20T12:49:34.182Z" agent="Mozilla/5.0 (X11; Ubuntu; Linux x86_64; rv:109.0) Gecko/20100101 Firefox/113.0" etag="0jEMIYIkOogkdugNDXBH" version="21.5.0" type="device">
  <diagram name="Page-1" id="CpT_m-j7Am7sjx0DqRG0">
    <mxGraphModel dx="1975" dy="650" grid="1" gridSize="10" guides="1" tooltips="1" connect="1" arrows="1" fold="1" page="1" pageScale="1" pageWidth="850" pageHeight="1100" math="0" shadow="0">
      <root>
        <mxCell id="0" />
        <mxCell id="1" parent="0" />
        <mxCell id="NEY-SCTF0jtiZKWW0wOI-28" value="EgoVehicle" style="rounded=1;whiteSpace=wrap;html=1;labelPosition=center;verticalLabelPosition=top;align=center;verticalAlign=bottom;arcSize=5;fontSize=16;fontStyle=1" vertex="1" parent="1">
          <mxGeometry x="-700" y="295" width="680" height="445" as="geometry" />
        </mxCell>
        <mxCell id="NEY-SCTF0jtiZKWW0wOI-93" value="" style="edgeStyle=orthogonalEdgeStyle;rounded=0;orthogonalLoop=1;jettySize=auto;html=1;entryX=0;entryY=0.25;entryDx=0;entryDy=0;" edge="1" parent="1" source="NEY-SCTF0jtiZKWW0wOI-47" target="NEY-SCTF0jtiZKWW0wOI-69">
          <mxGeometry relative="1" as="geometry">
            <Array as="points">
              <mxPoint x="-410" y="520" />
              <mxPoint x="-410" y="570" />
            </Array>
          </mxGeometry>
        </mxCell>
        <mxCell id="NEY-SCTF0jtiZKWW0wOI-47" value="&lt;div&gt;CoM&lt;/div&gt;" style="rounded=0;whiteSpace=wrap;html=1;" vertex="1" parent="1">
          <mxGeometry x="-590" y="500" width="110" height="40" as="geometry" />
        </mxCell>
        <mxCell id="NEY-SCTF0jtiZKWW0wOI-68" style="edgeStyle=orthogonalEdgeStyle;rounded=0;orthogonalLoop=1;jettySize=auto;html=1;entryX=0;entryY=0.5;entryDx=0;entryDy=0;" edge="1" parent="1" source="NEY-SCTF0jtiZKWW0wOI-48" target="NEY-SCTF0jtiZKWW0wOI-57">
          <mxGeometry relative="1" as="geometry">
            <mxPoint x="-430" y="405" as="targetPoint" />
            <Array as="points">
              <mxPoint x="-400" y="400" />
              <mxPoint x="-400" y="400" />
            </Array>
          </mxGeometry>
        </mxCell>
        <mxCell id="NEY-SCTF0jtiZKWW0wOI-48" value="&lt;div&gt;Models&lt;/div&gt;" style="rounded=1;whiteSpace=wrap;html=1;" vertex="1" parent="1">
          <mxGeometry x="-590" y="380" width="110" height="40" as="geometry" />
        </mxCell>
        <mxCell id="NEY-SCTF0jtiZKWW0wOI-50" value="&lt;div style=&quot;font-size: 14px;&quot;&gt;Sensors (URDF)&lt;/div&gt;" style="rounded=1;whiteSpace=wrap;html=1;labelPosition=center;verticalLabelPosition=top;align=center;verticalAlign=bottom;arcSize=5;fontSize=14;fontStyle=1" vertex="1" parent="1">
          <mxGeometry x="-190" y="330" width="150" height="380" as="geometry" />
        </mxCell>
        <mxCell id="NEY-SCTF0jtiZKWW0wOI-52" value="Reflection Probe" style="rounded=1;whiteSpace=wrap;html=1;" vertex="1" parent="1">
          <mxGeometry x="-590" y="320" width="110" height="40" as="geometry" />
        </mxCell>
        <mxCell id="NEY-SCTF0jtiZKWW0wOI-92" value="" style="edgeStyle=orthogonalEdgeStyle;rounded=0;orthogonalLoop=1;jettySize=auto;html=1;entryX=0.75;entryY=1;entryDx=0;entryDy=0;endArrow=none;endFill=0;startArrow=classic;startFill=1;" edge="1" parent="1" source="NEY-SCTF0jtiZKWW0wOI-53" target="NEY-SCTF0jtiZKWW0wOI-69">
          <mxGeometry relative="1" as="geometry">
            <mxPoint x="-285" y="700" as="targetPoint" />
          </mxGeometry>
        </mxCell>
        <mxCell id="NEY-SCTF0jtiZKWW0wOI-53" value="&lt;div&gt;Vehicle Keyboard Input&lt;/div&gt;" style="shape=process;whiteSpace=wrap;html=1;backgroundOutline=1;" vertex="1" parent="1">
          <mxGeometry x="-620" y="680" width="170" height="40" as="geometry" />
        </mxCell>
        <mxCell id="NEY-SCTF0jtiZKWW0wOI-61" value="" style="edgeStyle=orthogonalEdgeStyle;rounded=0;orthogonalLoop=1;jettySize=auto;html=1;entryX=0;entryY=0.5;entryDx=0;entryDy=0;endArrow=none;endFill=0;startArrow=classic;startFill=1;" edge="1" parent="1" source="NEY-SCTF0jtiZKWW0wOI-54" target="NEY-SCTF0jtiZKWW0wOI-48">
          <mxGeometry relative="1" as="geometry">
            <mxPoint x="-720" y="610" as="targetPoint" />
            <Array as="points">
              <mxPoint x="-680" y="580" />
              <mxPoint x="-680" y="400" />
            </Array>
          </mxGeometry>
        </mxCell>
        <mxCell id="NEY-SCTF0jtiZKWW0wOI-54" value="&lt;div&gt;Vehicle Visual Effect&lt;/div&gt;" style="shape=process;whiteSpace=wrap;html=1;backgroundOutline=1;" vertex="1" parent="1">
          <mxGeometry x="-620" y="560" width="170" height="40" as="geometry" />
        </mxCell>
        <mxCell id="NEY-SCTF0jtiZKWW0wOI-71" value="" style="edgeStyle=orthogonalEdgeStyle;rounded=0;orthogonalLoop=1;jettySize=auto;html=1;entryX=0.25;entryY=1;entryDx=0;entryDy=0;endArrow=none;endFill=0;startArrow=classic;startFill=1;" edge="1" parent="1" source="NEY-SCTF0jtiZKWW0wOI-55" target="NEY-SCTF0jtiZKWW0wOI-69">
          <mxGeometry relative="1" as="geometry">
            <mxPoint x="-320" y="640" as="targetPoint" />
            <Array as="points">
              <mxPoint x="-345" y="640" />
            </Array>
          </mxGeometry>
        </mxCell>
        <mxCell id="NEY-SCTF0jtiZKWW0wOI-55" value="Vehicle Ros Input" style="shape=process;whiteSpace=wrap;html=1;backgroundOutline=1;" vertex="1" parent="1">
          <mxGeometry x="-620" y="620" width="170" height="40" as="geometry" />
        </mxCell>
        <mxCell id="NEY-SCTF0jtiZKWW0wOI-56" value="FrontLeftWheel" style="shape=process;whiteSpace=wrap;html=1;backgroundOutline=1;" vertex="1" parent="1">
          <mxGeometry x="-380" y="320" width="140" height="40" as="geometry" />
        </mxCell>
        <mxCell id="NEY-SCTF0jtiZKWW0wOI-57" value="FrontRightWheel" style="shape=process;whiteSpace=wrap;html=1;backgroundOutline=1;" vertex="1" parent="1">
          <mxGeometry x="-380" y="380" width="140" height="40" as="geometry" />
        </mxCell>
        <mxCell id="NEY-SCTF0jtiZKWW0wOI-58" value="RearLeftWheel" style="shape=process;whiteSpace=wrap;html=1;backgroundOutline=1;" vertex="1" parent="1">
          <mxGeometry x="-380" y="440" width="140" height="40" as="geometry" />
        </mxCell>
        <mxCell id="NEY-SCTF0jtiZKWW0wOI-59" value="RearRightWheel" style="shape=process;whiteSpace=wrap;html=1;backgroundOutline=1;" vertex="1" parent="1">
          <mxGeometry x="-380" y="500" width="140" height="40" as="geometry" />
        </mxCell>
        <mxCell id="NEY-SCTF0jtiZKWW0wOI-64" value="" style="rounded=0;orthogonalLoop=1;jettySize=auto;html=1;entryX=0;entryY=0.5;entryDx=0;entryDy=0;exitX=1;exitY=0.5;exitDx=0;exitDy=0;edgeStyle=orthogonalEdgeStyle;" edge="1" parent="1" source="NEY-SCTF0jtiZKWW0wOI-49" target="NEY-SCTF0jtiZKWW0wOI-59">
          <mxGeometry relative="1" as="geometry">
            <mxPoint x="-520" y="440" as="sourcePoint" />
            <mxPoint x="-400" y="560" as="targetPoint" />
            <Array as="points">
              <mxPoint x="-400" y="460" />
              <mxPoint x="-400" y="520" />
            </Array>
          </mxGeometry>
        </mxCell>
        <mxCell id="NEY-SCTF0jtiZKWW0wOI-70" value="" style="edgeStyle=orthogonalEdgeStyle;rounded=0;orthogonalLoop=1;jettySize=auto;html=1;endArrow=none;endFill=0;startArrow=classic;startFill=1;" edge="1" parent="1" source="NEY-SCTF0jtiZKWW0wOI-69" target="NEY-SCTF0jtiZKWW0wOI-54">
          <mxGeometry relative="1" as="geometry" />
        </mxCell>
        <mxCell id="NEY-SCTF0jtiZKWW0wOI-75" value="" style="edgeStyle=orthogonalEdgeStyle;rounded=0;orthogonalLoop=1;jettySize=auto;html=1;entryX=1;entryY=0.5;entryDx=0;entryDy=0;endArrow=none;endFill=0;startArrow=classic;startFill=1;" edge="1" parent="1">
          <mxGeometry relative="1" as="geometry">
            <mxPoint x="-240" y="580" as="sourcePoint" />
            <mxPoint x="-240" y="520" as="targetPoint" />
            <Array as="points">
              <mxPoint x="-220" y="580" />
              <mxPoint x="-220" y="520" />
            </Array>
          </mxGeometry>
        </mxCell>
        <mxCell id="NEY-SCTF0jtiZKWW0wOI-69" value="&lt;div&gt;Vehicle&lt;/div&gt;" style="shape=process;whiteSpace=wrap;html=1;backgroundOutline=1;" vertex="1" parent="1">
          <mxGeometry x="-380" y="560" width="140" height="40" as="geometry" />
        </mxCell>
        <mxCell id="NEY-SCTF0jtiZKWW0wOI-77" value="" style="edgeStyle=orthogonalEdgeStyle;rounded=0;orthogonalLoop=1;jettySize=auto;html=1;entryX=1;entryY=0.5;entryDx=0;entryDy=0;exitX=1;exitY=0.5;exitDx=0;exitDy=0;endArrow=none;endFill=0;startArrow=classic;startFill=1;" edge="1" parent="1">
          <mxGeometry relative="1" as="geometry">
            <mxPoint x="-240" y="580" as="sourcePoint" />
            <mxPoint x="-240" y="460" as="targetPoint" />
            <Array as="points">
              <mxPoint x="-220" y="580" />
              <mxPoint x="-220" y="460" />
            </Array>
          </mxGeometry>
        </mxCell>
        <mxCell id="NEY-SCTF0jtiZKWW0wOI-78" value="" style="edgeStyle=orthogonalEdgeStyle;rounded=0;orthogonalLoop=1;jettySize=auto;html=1;entryX=1;entryY=0.5;entryDx=0;entryDy=0;endArrow=none;endFill=0;startArrow=classic;startFill=1;exitX=1;exitY=0.5;exitDx=0;exitDy=0;" edge="1" parent="1" source="NEY-SCTF0jtiZKWW0wOI-69" target="NEY-SCTF0jtiZKWW0wOI-57">
          <mxGeometry relative="1" as="geometry">
            <mxPoint x="-230" y="580" as="sourcePoint" />
            <mxPoint x="-190" y="482.48" as="targetPoint" />
            <Array as="points">
              <mxPoint x="-220" y="580" />
              <mxPoint x="-220" y="400" />
            </Array>
          </mxGeometry>
        </mxCell>
        <mxCell id="NEY-SCTF0jtiZKWW0wOI-79" value="" style="edgeStyle=orthogonalEdgeStyle;rounded=0;orthogonalLoop=1;jettySize=auto;html=1;entryX=1;entryY=0.5;entryDx=0;entryDy=0;exitX=1;exitY=0.5;exitDx=0;exitDy=0;startArrow=classic;startFill=1;endArrow=none;endFill=0;" edge="1" parent="1" source="NEY-SCTF0jtiZKWW0wOI-69" target="NEY-SCTF0jtiZKWW0wOI-56">
          <mxGeometry relative="1" as="geometry">
            <mxPoint x="-230" y="620" as="sourcePoint" />
            <mxPoint x="-230" y="405" as="targetPoint" />
            <Array as="points">
              <mxPoint x="-220" y="580" />
              <mxPoint x="-220" y="340" />
            </Array>
          </mxGeometry>
        </mxCell>
        <mxCell id="NEY-SCTF0jtiZKWW0wOI-82" value="Collider reference" style="text;html=1;strokeColor=none;fillColor=none;align=center;verticalAlign=middle;whiteSpace=wrap;rounded=0;" vertex="1" parent="1">
          <mxGeometry x="-480" y="430" width="60" height="30" as="geometry" />
        </mxCell>
        <mxCell id="NEY-SCTF0jtiZKWW0wOI-84" value="&lt;div&gt;Visual TF&lt;br&gt;&lt;/div&gt;&lt;div&gt;&amp;nbsp;reference&lt;/div&gt;" style="text;html=1;strokeColor=none;fillColor=none;align=center;verticalAlign=middle;whiteSpace=wrap;rounded=0;" vertex="1" parent="1">
          <mxGeometry x="-480" y="370" width="60" height="30" as="geometry" />
        </mxCell>
        <mxCell id="NEY-SCTF0jtiZKWW0wOI-49" value="Colliders" style="rounded=1;whiteSpace=wrap;html=1;" vertex="1" parent="1">
          <mxGeometry x="-590" y="440" width="110" height="40" as="geometry" />
        </mxCell>
        <mxCell id="NEY-SCTF0jtiZKWW0wOI-87" style="edgeStyle=orthogonalEdgeStyle;rounded=0;orthogonalLoop=1;jettySize=auto;html=1;entryX=0;entryY=0.5;entryDx=0;entryDy=0;exitX=0;exitY=1;exitDx=0;exitDy=0;" edge="1" parent="1" source="NEY-SCTF0jtiZKWW0wOI-84" target="NEY-SCTF0jtiZKWW0wOI-56">
          <mxGeometry relative="1" as="geometry">
            <mxPoint x="-370" y="410" as="targetPoint" />
            <mxPoint x="-470" y="410" as="sourcePoint" />
            <Array as="points">
              <mxPoint x="-400" y="400" />
              <mxPoint x="-400" y="340" />
            </Array>
          </mxGeometry>
        </mxCell>
        <mxCell id="NEY-SCTF0jtiZKWW0wOI-89" style="edgeStyle=orthogonalEdgeStyle;rounded=0;orthogonalLoop=1;jettySize=auto;html=1;entryX=0;entryY=0.5;entryDx=0;entryDy=0;exitX=0;exitY=1;exitDx=0;exitDy=0;" edge="1" parent="1" source="NEY-SCTF0jtiZKWW0wOI-82" target="NEY-SCTF0jtiZKWW0wOI-57">
          <mxGeometry relative="1" as="geometry">
            <mxPoint x="-370" y="410" as="targetPoint" />
            <mxPoint x="-470" y="410" as="sourcePoint" />
            <Array as="points">
              <mxPoint x="-400" y="460" />
              <mxPoint x="-400" y="400" />
            </Array>
          </mxGeometry>
        </mxCell>
        <mxCell id="NEY-SCTF0jtiZKWW0wOI-90" value="" style="rounded=0;orthogonalLoop=1;jettySize=auto;html=1;entryX=0;entryY=0.5;entryDx=0;entryDy=0;exitX=1;exitY=0.5;exitDx=0;exitDy=0;edgeStyle=orthogonalEdgeStyle;" edge="1" parent="1" source="NEY-SCTF0jtiZKWW0wOI-49" target="NEY-SCTF0jtiZKWW0wOI-58">
          <mxGeometry relative="1" as="geometry">
            <mxPoint x="-470" y="470" as="sourcePoint" />
            <mxPoint x="-370" y="530" as="targetPoint" />
            <Array as="points">
              <mxPoint x="-390" y="460" />
              <mxPoint x="-390" y="460" />
            </Array>
          </mxGeometry>
        </mxCell>
        <mxCell id="NEY-SCTF0jtiZKWW0wOI-94" value="Reference" style="text;whiteSpace=wrap;html=1;" vertex="1" parent="1">
          <mxGeometry x="-470" y="500" width="132" height="40" as="geometry" />
        </mxCell>
        <mxCell id="NEY-SCTF0jtiZKWW0wOI-101" value="Vehicle Status" style="rounded=1;whiteSpace=wrap;html=1;" vertex="1" parent="1">
          <mxGeometry x="-170" y="350" width="110" height="40" as="geometry" />
        </mxCell>
        <mxCell id="NEY-SCTF0jtiZKWW0wOI-102" value="Camera" style="rounded=1;whiteSpace=wrap;html=1;" vertex="1" parent="1">
          <mxGeometry x="-170" y="590" width="110" height="40" as="geometry" />
        </mxCell>
        <mxCell id="NEY-SCTF0jtiZKWW0wOI-103" value="Pose" style="rounded=1;whiteSpace=wrap;html=1;" vertex="1" parent="1">
          <mxGeometry x="-170" y="650" width="110" height="40" as="geometry" />
        </mxCell>
        <mxCell id="NEY-SCTF0jtiZKWW0wOI-104" value="LiDAR" style="rounded=1;whiteSpace=wrap;html=1;" vertex="1" parent="1">
          <mxGeometry x="-170" y="470" width="110" height="40" as="geometry" />
        </mxCell>
        <mxCell id="NEY-SCTF0jtiZKWW0wOI-105" value="IMU" style="rounded=1;whiteSpace=wrap;html=1;" vertex="1" parent="1">
          <mxGeometry x="-170" y="530" width="110" height="40" as="geometry" />
        </mxCell>
        <mxCell id="NEY-SCTF0jtiZKWW0wOI-106" value="GNSS" style="rounded=1;whiteSpace=wrap;html=1;" vertex="1" parent="1">
          <mxGeometry x="-170" y="410" width="110" height="40" as="geometry" />
        </mxCell>
        <mxCell id="NEY-SCTF0jtiZKWW0wOI-109" value="Mesh Reference" style="text;html=1;strokeColor=none;fillColor=none;align=center;verticalAlign=middle;whiteSpace=wrap;rounded=0;" vertex="1" parent="1">
          <mxGeometry x="-680" y="550" width="60" height="30" as="geometry" />
        </mxCell>
      </root>
    </mxGraphModel>
  </diagram>
</mxfile>
